<svg width="70" height="79" viewBox="0 0 70 79" fill="none" xmlns="http://www.w3.org/2000/svg">
<path d="M48.0274 64.1326L62.8442 55.1137V38.3642L48.0274 29.3453L33.2105 38.3642V55.1137L48.0274 64.1326Z" fill="#F9BF3A" stroke="black"/>
<path d="M48.0274 60.2674L58.979 53.2526V40.2253L48.0274 33.2105L37.0758 40.2253V53.2526L48.0274 60.2674Z" fill="#FFCE4B"/>
<path d="M48.0274 53.8253L53.8253 50.1509V43.327L48.0274 39.6526L42.2295 43.327V50.1509L48.0274 53.8253Z" fill="white" fill-opacity="0.49"/>
<path d="M15.8168 64.1326L30.6337 55.1137V38.3642L15.8168 29.3453L1 38.3642V55.1137L15.8168 64.1326Z" fill="#F9BF3A" stroke="black"/>
<path d="M15.8168 60.2674L26.7684 53.2526V40.2253L15.8168 33.2105L4.86523 40.2253V53.2526L15.8168 60.2674Z" fill="#FFCE4B"/>
<path d="M15.8168 53.8253L21.6147 50.1509V43.327L15.8168 39.6526L10.0189 43.327V50.1509L15.8168 53.8253Z" fill="white" fill-opacity="0.49"/>
<path d="M32.5663 35.7874L47.3831 26.7684V10.0189L32.5663 1L17.7495 10.0189V26.7684L32.5663 35.7874Z" fill="#F9BF3A" stroke="black"/>
<path d="M32.5663 31.9221L43.5179 24.9074V11.88L32.5663 4.86526L21.6147 11.88V24.9074L32.5663 31.9221Z" fill="#FFCE4B"/>
<path d="M32.5663 25.48L38.3642 21.8056V14.9818L32.5663 11.3074L26.7684 14.9818V21.8056L32.5663 25.48Z" fill="white" fill-opacity="0.49"/>
<path d="M58.1916 31.9221L66.4232 26.9116V17.6063L58.1916 12.5958L49.96 17.6063V26.9116L58.1916 31.9221Z" fill="#F9BF3A" stroke="black"/>
<path d="M58.1916 29.7747L64.2758 25.8777V18.6402L58.1916 14.7432L52.1074 18.6402V25.8777L58.1916 29.7747Z" fill="#FFCE4B"/>
<path d="M58.1916 26.1958L61.4127 24.1545V20.3634L58.1916 18.3221L54.9706 20.3634V24.1545L58.1916 26.1958Z" fill="white" fill-opacity="0.49"/>
<path d="M60.7684 78.3053L69 73.2947V63.9895L60.7684 58.9789L52.5369 63.9895V73.2947L60.7684 78.3053Z" fill="#F9BF3A" stroke="black"/>
<path d="M60.7685 76.1579L66.8527 72.2608V65.0234L60.7685 61.1263L54.6843 65.0234V72.2608L60.7685 76.1579Z" fill="#FFCE4B"/>
<path d="M60.7685 72.579L63.9895 70.5377V66.7466L60.7685 64.7053L57.5474 66.7466V70.5377L60.7685 72.579Z" fill="white" fill-opacity="0.49"/>
</svg>
